<mxfile host="Electron" agent="Mozilla/5.0 (Macintosh; Intel Mac OS X 10_15_7) AppleWebKit/537.36 (KHTML, like Gecko) draw.io/26.0.16 Chrome/132.0.6834.196 Electron/34.2.0 Safari/537.36" version="26.0.16">
  <diagram name="Page-1" id="9d8EsT8RRV3Jyv7CzK8o">
    <mxGraphModel dx="820" dy="598" grid="1" gridSize="10" guides="1" tooltips="1" connect="1" arrows="1" fold="1" page="1" pageScale="1" pageWidth="1100" pageHeight="850" math="0" shadow="0">
      <root>
        <mxCell id="0" />
        <mxCell id="1" parent="0" />
        <mxCell id="WOIYuGlRUfpx2QF0aWaS-43" value="" style="rounded=0;whiteSpace=wrap;html=1;fillColor=#dae8fc;strokeColor=#6c8ebf;" vertex="1" parent="1">
          <mxGeometry x="420" y="266" width="364" height="224.57" as="geometry" />
        </mxCell>
        <mxCell id="WOIYuGlRUfpx2QF0aWaS-21" value="" style="rounded=0;whiteSpace=wrap;html=1;fillColor=#ffe6cc;strokeColor=#d79b00;" vertex="1" parent="1">
          <mxGeometry x="290" y="505" width="495" height="220" as="geometry" />
        </mxCell>
        <mxCell id="WOIYuGlRUfpx2QF0aWaS-54" style="edgeStyle=orthogonalEdgeStyle;rounded=0;orthogonalLoop=1;jettySize=auto;html=1;exitX=0.5;exitY=0;exitDx=0;exitDy=0;entryX=0.5;entryY=1;entryDx=0;entryDy=0;" edge="1" parent="1" source="WOIYuGlRUfpx2QF0aWaS-1" target="WOIYuGlRUfpx2QF0aWaS-53">
          <mxGeometry relative="1" as="geometry" />
        </mxCell>
        <mxCell id="WOIYuGlRUfpx2QF0aWaS-56" style="edgeStyle=orthogonalEdgeStyle;rounded=0;orthogonalLoop=1;jettySize=auto;html=1;exitX=0.5;exitY=0;exitDx=0;exitDy=0;entryX=0.5;entryY=0;entryDx=0;entryDy=0;" edge="1" parent="1" source="WOIYuGlRUfpx2QF0aWaS-1" target="WOIYuGlRUfpx2QF0aWaS-55">
          <mxGeometry relative="1" as="geometry" />
        </mxCell>
        <mxCell id="WOIYuGlRUfpx2QF0aWaS-1" value="&lt;font&gt;UDP Port (57175)&lt;/font&gt;" style="rounded=0;whiteSpace=wrap;html=1;rotation=-90;" vertex="1" parent="1">
          <mxGeometry x="166.5" y="608" width="142.5" height="40" as="geometry" />
        </mxCell>
        <mxCell id="WOIYuGlRUfpx2QF0aWaS-15" style="edgeStyle=orthogonalEdgeStyle;rounded=0;orthogonalLoop=1;jettySize=auto;html=1;exitX=1;exitY=0.5;exitDx=0;exitDy=0;entryX=0;entryY=0.5;entryDx=0;entryDy=0;" edge="1" parent="1" source="WOIYuGlRUfpx2QF0aWaS-2" target="WOIYuGlRUfpx2QF0aWaS-11">
          <mxGeometry relative="1" as="geometry" />
        </mxCell>
        <mxCell id="WOIYuGlRUfpx2QF0aWaS-2" value="WireGuard Decryption" style="rounded=0;whiteSpace=wrap;html=1;" vertex="1" parent="1">
          <mxGeometry x="368" y="568" width="90" height="50" as="geometry" />
        </mxCell>
        <mxCell id="WOIYuGlRUfpx2QF0aWaS-64" style="edgeStyle=orthogonalEdgeStyle;rounded=0;orthogonalLoop=1;jettySize=auto;html=1;exitX=0.25;exitY=0;exitDx=0;exitDy=0;entryX=0.75;entryY=1;entryDx=0;entryDy=0;" edge="1" parent="1" source="WOIYuGlRUfpx2QF0aWaS-9" target="WOIYuGlRUfpx2QF0aWaS-60">
          <mxGeometry relative="1" as="geometry" />
        </mxCell>
        <mxCell id="WOIYuGlRUfpx2QF0aWaS-9" value="PolySock&lt;div&gt;Receiver&lt;/div&gt;" style="rounded=0;whiteSpace=wrap;html=1;" vertex="1" parent="1">
          <mxGeometry x="579" y="425" width="82.5" height="50" as="geometry" />
        </mxCell>
        <mxCell id="WOIYuGlRUfpx2QF0aWaS-32" style="edgeStyle=orthogonalEdgeStyle;rounded=0;orthogonalLoop=1;jettySize=auto;html=1;exitX=0.25;exitY=0;exitDx=0;exitDy=0;entryX=1;entryY=0.5;entryDx=0;entryDy=0;" edge="1" parent="1" source="WOIYuGlRUfpx2QF0aWaS-10" target="WOIYuGlRUfpx2QF0aWaS-13">
          <mxGeometry relative="1" as="geometry" />
        </mxCell>
        <mxCell id="WOIYuGlRUfpx2QF0aWaS-10" value="TUN" style="rounded=0;whiteSpace=wrap;html=1;rotation=-90;" vertex="1" parent="1">
          <mxGeometry x="755" y="608" width="140" height="40" as="geometry" />
        </mxCell>
        <mxCell id="WOIYuGlRUfpx2QF0aWaS-18" style="edgeStyle=orthogonalEdgeStyle;rounded=0;orthogonalLoop=1;jettySize=auto;html=1;exitX=0.5;exitY=0;exitDx=0;exitDy=0;entryX=0.5;entryY=1;entryDx=0;entryDy=0;" edge="1" parent="1" source="WOIYuGlRUfpx2QF0aWaS-11" target="WOIYuGlRUfpx2QF0aWaS-9">
          <mxGeometry relative="1" as="geometry" />
        </mxCell>
        <mxCell id="WOIYuGlRUfpx2QF0aWaS-19" value="PolySock Packet" style="edgeLabel;html=1;align=center;verticalAlign=middle;resizable=0;points=[];" vertex="1" connectable="0" parent="WOIYuGlRUfpx2QF0aWaS-18">
          <mxGeometry x="0.1429" relative="1" as="geometry">
            <mxPoint y="20" as="offset" />
          </mxGeometry>
        </mxCell>
        <mxCell id="WOIYuGlRUfpx2QF0aWaS-11" value="Packet Dissection" style="rounded=0;whiteSpace=wrap;html=1;" vertex="1" parent="1">
          <mxGeometry x="575" y="568" width="90" height="50" as="geometry" />
        </mxCell>
        <mxCell id="WOIYuGlRUfpx2QF0aWaS-12" value="WireGuard Encryption" style="rounded=0;whiteSpace=wrap;html=1;" vertex="1" parent="1">
          <mxGeometry x="368" y="638" width="90" height="50" as="geometry" />
        </mxCell>
        <mxCell id="WOIYuGlRUfpx2QF0aWaS-33" style="edgeStyle=orthogonalEdgeStyle;rounded=0;orthogonalLoop=1;jettySize=auto;html=1;exitX=0;exitY=0.5;exitDx=0;exitDy=0;entryX=1;entryY=0.5;entryDx=0;entryDy=0;" edge="1" parent="1" source="WOIYuGlRUfpx2QF0aWaS-13" target="WOIYuGlRUfpx2QF0aWaS-14">
          <mxGeometry relative="1" as="geometry" />
        </mxCell>
        <mxCell id="WOIYuGlRUfpx2QF0aWaS-13" value="Packet Dissection" style="rounded=0;whiteSpace=wrap;html=1;" vertex="1" parent="1">
          <mxGeometry x="661" y="638" width="90" height="50" as="geometry" />
        </mxCell>
        <mxCell id="WOIYuGlRUfpx2QF0aWaS-40" style="edgeStyle=orthogonalEdgeStyle;rounded=0;orthogonalLoop=1;jettySize=auto;html=1;entryX=1;entryY=0.5;entryDx=0;entryDy=0;" edge="1" parent="1" source="WOIYuGlRUfpx2QF0aWaS-14" target="WOIYuGlRUfpx2QF0aWaS-12">
          <mxGeometry relative="1" as="geometry" />
        </mxCell>
        <mxCell id="WOIYuGlRUfpx2QF0aWaS-14" value="Static&lt;div&gt;Routing&lt;/div&gt;" style="rounded=0;whiteSpace=wrap;html=1;rotation=0;" vertex="1" parent="1">
          <mxGeometry x="555" y="638" width="82.5" height="50" as="geometry" />
        </mxCell>
        <mxCell id="WOIYuGlRUfpx2QF0aWaS-16" style="edgeStyle=orthogonalEdgeStyle;rounded=0;orthogonalLoop=1;jettySize=auto;html=1;exitX=1;exitY=0.5;exitDx=0;exitDy=0;entryX=0.75;entryY=0;entryDx=0;entryDy=0;" edge="1" parent="1" source="WOIYuGlRUfpx2QF0aWaS-11" target="WOIYuGlRUfpx2QF0aWaS-10">
          <mxGeometry relative="1" as="geometry" />
        </mxCell>
        <mxCell id="WOIYuGlRUfpx2QF0aWaS-28" value="IPv4/6 Packet" style="edgeLabel;html=1;align=center;verticalAlign=middle;resizable=0;points=[];" vertex="1" connectable="0" parent="WOIYuGlRUfpx2QF0aWaS-16">
          <mxGeometry x="-0.2597" relative="1" as="geometry">
            <mxPoint x="8" as="offset" />
          </mxGeometry>
        </mxCell>
        <mxCell id="WOIYuGlRUfpx2QF0aWaS-26" value="Polyamide (WireGuard) - Dataplane" style="text;html=1;align=left;verticalAlign=middle;resizable=0;points=[];autosize=1;strokeColor=none;fillColor=none;" vertex="1" parent="1">
          <mxGeometry x="296" y="506" width="210" height="30" as="geometry" />
        </mxCell>
        <mxCell id="WOIYuGlRUfpx2QF0aWaS-42" style="edgeStyle=orthogonalEdgeStyle;rounded=0;orthogonalLoop=1;jettySize=auto;html=1;entryX=0.5;entryY=0;entryDx=0;entryDy=0;" edge="1" parent="1" source="WOIYuGlRUfpx2QF0aWaS-27" target="WOIYuGlRUfpx2QF0aWaS-34">
          <mxGeometry relative="1" as="geometry" />
        </mxCell>
        <mxCell id="WOIYuGlRUfpx2QF0aWaS-27" value="PolySock.Send()" style="rounded=0;whiteSpace=wrap;html=1;" vertex="1" parent="1">
          <mxGeometry x="453" y="425" width="115" height="50" as="geometry" />
        </mxCell>
        <mxCell id="WOIYuGlRUfpx2QF0aWaS-34" value="Packet Injection" style="whiteSpace=wrap;html=1;" vertex="1" parent="1">
          <mxGeometry x="480" y="608" width="60" height="40" as="geometry" />
        </mxCell>
        <mxCell id="WOIYuGlRUfpx2QF0aWaS-41" value="" style="endArrow=none;html=1;rounded=0;entryX=0.5;entryY=1;entryDx=0;entryDy=0;" edge="1" parent="1" target="WOIYuGlRUfpx2QF0aWaS-34">
          <mxGeometry width="50" height="50" relative="1" as="geometry">
            <mxPoint x="510" y="663" as="sourcePoint" />
            <mxPoint x="510" y="655" as="targetPoint" />
          </mxGeometry>
        </mxCell>
        <mxCell id="WOIYuGlRUfpx2QF0aWaS-44" value="Nylon - Control Plane" style="text;html=1;align=left;verticalAlign=middle;resizable=0;points=[];autosize=1;strokeColor=none;fillColor=none;" vertex="1" parent="1">
          <mxGeometry x="432" y="266" width="140" height="30" as="geometry" />
        </mxCell>
        <mxCell id="WOIYuGlRUfpx2QF0aWaS-46" value="" style="sketch=0;verticalLabelPosition=bottom;sketch=0;aspect=fixed;html=1;verticalAlign=top;strokeColor=none;fillColor=#000000;align=center;outlineConnect=0;pointerEvents=1;shape=mxgraph.citrix2.external_users;" vertex="1" parent="1">
          <mxGeometry x="880" y="578.87" width="85.51" height="88.25" as="geometry" />
        </mxCell>
        <mxCell id="WOIYuGlRUfpx2QF0aWaS-47" value="Dynamic/Multi Endpoint" style="rounded=0;whiteSpace=wrap;html=1;rotation=-90;" vertex="1" parent="1">
          <mxGeometry x="275" y="606" width="110" height="45" as="geometry" />
        </mxCell>
        <mxCell id="WOIYuGlRUfpx2QF0aWaS-49" style="edgeStyle=orthogonalEdgeStyle;rounded=0;orthogonalLoop=1;jettySize=auto;html=1;exitX=0.75;exitY=1;exitDx=0;exitDy=0;entryX=0.824;entryY=0.016;entryDx=0;entryDy=0;entryPerimeter=0;" edge="1" parent="1" source="WOIYuGlRUfpx2QF0aWaS-1" target="WOIYuGlRUfpx2QF0aWaS-47">
          <mxGeometry relative="1" as="geometry" />
        </mxCell>
        <mxCell id="WOIYuGlRUfpx2QF0aWaS-50" style="edgeStyle=orthogonalEdgeStyle;rounded=0;orthogonalLoop=1;jettySize=auto;html=1;exitX=0.25;exitY=1;exitDx=0;exitDy=0;entryX=0.188;entryY=-0.013;entryDx=0;entryDy=0;entryPerimeter=0;" edge="1" parent="1" source="WOIYuGlRUfpx2QF0aWaS-1" target="WOIYuGlRUfpx2QF0aWaS-47">
          <mxGeometry relative="1" as="geometry" />
        </mxCell>
        <mxCell id="WOIYuGlRUfpx2QF0aWaS-51" style="edgeStyle=orthogonalEdgeStyle;rounded=0;orthogonalLoop=1;jettySize=auto;html=1;exitX=0;exitY=0.5;exitDx=0;exitDy=0;entryX=0.184;entryY=1.047;entryDx=0;entryDy=0;entryPerimeter=0;" edge="1" parent="1" source="WOIYuGlRUfpx2QF0aWaS-12" target="WOIYuGlRUfpx2QF0aWaS-47">
          <mxGeometry relative="1" as="geometry" />
        </mxCell>
        <mxCell id="WOIYuGlRUfpx2QF0aWaS-52" style="edgeStyle=orthogonalEdgeStyle;rounded=0;orthogonalLoop=1;jettySize=auto;html=1;exitX=0.75;exitY=1;exitDx=0;exitDy=0;entryX=0.005;entryY=0.642;entryDx=0;entryDy=0;entryPerimeter=0;" edge="1" parent="1">
          <mxGeometry relative="1" as="geometry">
            <mxPoint x="352.5" y="595" as="sourcePoint" />
            <mxPoint x="368.4499999999998" y="594.1000000000001" as="targetPoint" />
          </mxGeometry>
        </mxCell>
        <mxCell id="WOIYuGlRUfpx2QF0aWaS-53" value="Other Nylon&lt;div&gt;Routers&lt;/div&gt;" style="rounded=0;whiteSpace=wrap;html=1;" vertex="1" parent="1">
          <mxGeometry x="60" y="535" width="100" height="55" as="geometry" />
        </mxCell>
        <mxCell id="WOIYuGlRUfpx2QF0aWaS-55" value="&quot;Passive&quot;&lt;div&gt;WireGuard Clients&lt;/div&gt;" style="rounded=0;whiteSpace=wrap;html=1;" vertex="1" parent="1">
          <mxGeometry x="50" y="669" width="120" height="60" as="geometry" />
        </mxCell>
        <mxCell id="WOIYuGlRUfpx2QF0aWaS-57" value="" style="image;aspect=fixed;perimeter=ellipsePerimeter;html=1;align=center;shadow=0;dashed=0;spacingTop=3;image=img/lib/active_directory/internet_globe.svg;" vertex="1" parent="1">
          <mxGeometry x="140" y="603" width="50" height="50" as="geometry" />
        </mxCell>
        <mxCell id="WOIYuGlRUfpx2QF0aWaS-65" value="" style="edgeStyle=orthogonalEdgeStyle;rounded=0;orthogonalLoop=1;jettySize=auto;html=1;" edge="1" parent="1">
          <mxGeometry relative="1" as="geometry">
            <mxPoint x="661" y="377.02127659574467" as="sourcePoint" />
            <mxPoint x="630" y="377.02127659574467" as="targetPoint" />
          </mxGeometry>
        </mxCell>
        <mxCell id="WOIYuGlRUfpx2QF0aWaS-67" style="edgeStyle=orthogonalEdgeStyle;rounded=0;orthogonalLoop=1;jettySize=auto;html=1;exitX=0.5;exitY=1;exitDx=0;exitDy=0;" edge="1" parent="1" source="WOIYuGlRUfpx2QF0aWaS-58" target="WOIYuGlRUfpx2QF0aWaS-61">
          <mxGeometry relative="1" as="geometry" />
        </mxCell>
        <mxCell id="WOIYuGlRUfpx2QF0aWaS-69" style="edgeStyle=orthogonalEdgeStyle;rounded=0;orthogonalLoop=1;jettySize=auto;html=1;exitX=1;exitY=0.5;exitDx=0;exitDy=0;entryX=0.5;entryY=0;entryDx=0;entryDy=0;" edge="1" parent="1" source="WOIYuGlRUfpx2QF0aWaS-58" target="WOIYuGlRUfpx2QF0aWaS-68">
          <mxGeometry relative="1" as="geometry" />
        </mxCell>
        <mxCell id="WOIYuGlRUfpx2QF0aWaS-58" value="Router" style="rounded=0;whiteSpace=wrap;html=1;fillColor=#f8cecc;strokeColor=#b85450;" vertex="1" parent="1">
          <mxGeometry x="661" y="347" width="90" height="40" as="geometry" />
        </mxCell>
        <mxCell id="WOIYuGlRUfpx2QF0aWaS-63" style="edgeStyle=orthogonalEdgeStyle;rounded=0;orthogonalLoop=1;jettySize=auto;html=1;exitX=0.25;exitY=1;exitDx=0;exitDy=0;entryX=0.75;entryY=0;entryDx=0;entryDy=0;" edge="1" parent="1" source="WOIYuGlRUfpx2QF0aWaS-60" target="WOIYuGlRUfpx2QF0aWaS-27">
          <mxGeometry relative="1" as="geometry" />
        </mxCell>
        <mxCell id="WOIYuGlRUfpx2QF0aWaS-66" value="" style="edgeStyle=orthogonalEdgeStyle;rounded=0;orthogonalLoop=1;jettySize=auto;html=1;" edge="1" parent="1">
          <mxGeometry relative="1" as="geometry">
            <mxPoint x="630" y="358.02127659574467" as="sourcePoint" />
            <mxPoint x="661" y="358.02127659574467" as="targetPoint" />
          </mxGeometry>
        </mxCell>
        <mxCell id="WOIYuGlRUfpx2QF0aWaS-60" value="Endpoint Probe/Discovery" style="whiteSpace=wrap;html=1;" vertex="1" parent="1">
          <mxGeometry x="510" y="342" width="120" height="50" as="geometry" />
        </mxCell>
        <mxCell id="WOIYuGlRUfpx2QF0aWaS-61" value="Management API" style="rounded=0;whiteSpace=wrap;html=1;fillColor=#fff2cc;strokeColor=#d6b656;" vertex="1" parent="1">
          <mxGeometry x="689" y="513" width="90" height="40" as="geometry" />
        </mxCell>
        <mxCell id="WOIYuGlRUfpx2QF0aWaS-68" value="System Network Configuration" style="rounded=0;whiteSpace=wrap;html=1;" vertex="1" parent="1">
          <mxGeometry x="810" y="423.28" width="130" height="51.72" as="geometry" />
        </mxCell>
        <mxCell id="WOIYuGlRUfpx2QF0aWaS-76" style="edgeStyle=orthogonalEdgeStyle;rounded=0;orthogonalLoop=1;jettySize=auto;html=1;" edge="1" parent="1" source="WOIYuGlRUfpx2QF0aWaS-71" target="WOIYuGlRUfpx2QF0aWaS-74">
          <mxGeometry relative="1" as="geometry">
            <mxPoint x="750" y="190" as="targetPoint" />
          </mxGeometry>
        </mxCell>
        <mxCell id="WOIYuGlRUfpx2QF0aWaS-77" style="edgeStyle=orthogonalEdgeStyle;rounded=0;orthogonalLoop=1;jettySize=auto;html=1;exitX=0.5;exitY=0;exitDx=0;exitDy=0;entryX=0.5;entryY=1;entryDx=0;entryDy=0;" edge="1" parent="1" source="WOIYuGlRUfpx2QF0aWaS-71" target="WOIYuGlRUfpx2QF0aWaS-73">
          <mxGeometry relative="1" as="geometry" />
        </mxCell>
        <mxCell id="WOIYuGlRUfpx2QF0aWaS-78" value="Secure Config Distribution" style="edgeLabel;html=1;align=center;verticalAlign=middle;resizable=0;points=[];" vertex="1" connectable="0" parent="WOIYuGlRUfpx2QF0aWaS-77">
          <mxGeometry x="0.0635" relative="1" as="geometry">
            <mxPoint x="28" y="19" as="offset" />
          </mxGeometry>
        </mxCell>
        <mxCell id="WOIYuGlRUfpx2QF0aWaS-71" value="Config" style="whiteSpace=wrap;html=1;" vertex="1" parent="1">
          <mxGeometry x="699.5" y="291" width="69" height="30" as="geometry" />
        </mxCell>
        <mxCell id="WOIYuGlRUfpx2QF0aWaS-73" value="" style="image;aspect=fixed;perimeter=ellipsePerimeter;html=1;align=center;shadow=0;dashed=0;spacingTop=3;image=img/lib/active_directory/internet_globe.svg;" vertex="1" parent="1">
          <mxGeometry x="677" y="170" width="50" height="50" as="geometry" />
        </mxCell>
        <mxCell id="WOIYuGlRUfpx2QF0aWaS-74" value="" style="sketch=0;pointerEvents=1;shadow=0;dashed=0;html=1;strokeColor=none;fillColor=#505050;labelPosition=center;verticalLabelPosition=bottom;verticalAlign=top;outlineConnect=0;align=center;shape=mxgraph.office.devices.hard_disk;" vertex="1" parent="1">
          <mxGeometry x="755" y="166" width="40" height="54" as="geometry" />
        </mxCell>
        <mxCell id="WOIYuGlRUfpx2QF0aWaS-79" value="Logging and Telemetry" style="rounded=0;whiteSpace=wrap;html=1;" vertex="1" parent="1">
          <mxGeometry x="531" y="292" width="155" height="29" as="geometry" />
        </mxCell>
      </root>
    </mxGraphModel>
  </diagram>
</mxfile>
